<svg width="36" height="36" viewBox="0 0 36 36" fill="none" xmlns="http://www.w3.org/2000/svg">
<path d="M36 18C36 8.05887 27.9411 0 18 0C8.05887 0 0 8.05887 0 18C0 27.9411 8.05887 36 18 36C27.9411 36 36 27.9411 36 18Z" fill="#FEFA17"/>
<mask id="mask0_647_17" style="mask-type:luminance" maskUnits="userSpaceOnUse" x="1" y="2" width="35" height="34">
<path d="M35.875 2H1V35.75H35.875V2Z" fill="white"/>
</mask>
<g mask="url(#mask0_647_17)">
<path d="M35.875 35.7499H1C2.52923 34.9951 3.99495 34.1127 5.38226 33.1115C7.99272 31.2278 11.5363 29.338 15.6115 28.9758C22.5392 28.36 31.1207 33.4557 35.875 35.7499Z" fill="black"/>
<path d="M18.4348 24.0069C16.9583 20.4629 14.3006 18.9233 12.8949 18.7844C12.4922 18.7578 12.0884 18.8159 11.7085 18.9551C11.3286 19.0942 10.9807 19.3115 10.6861 19.5935C10.9079 19.3186 11.1487 19.0603 11.4066 18.8207C11.0345 18.4765 10.5975 18.1444 10.5975 18.1444C10.9873 18.3316 11.4125 18.5792 11.5661 18.6758C11.9697 18.3159 12.4002 17.9889 12.8536 17.6977C12.4654 17.3768 12.057 17.0824 11.6311 16.8162C12.1653 16.997 12.6814 17.2295 13.1725 17.5105C13.7815 17.1539 14.4152 16.8432 15.0684 16.5807C14.8139 16.3643 14.5477 16.1627 14.271 15.977C14.6532 16.1146 15.0244 16.2821 15.3814 16.4781C16.0845 16.2057 16.8046 15.9818 17.5371 15.8079C13.9108 14.7755 11.0759 15.9287 10.0837 16.9732C9.68076 17.404 9.42579 17.957 9.35729 18.549C8.9246 17.5412 8.16823 16.7148 7.21341 16.2064C5.05181 15.2826 2.89021 17.0939 2.89021 17.0939C3.78854 16.9163 4.71858 17.026 5.55382 17.4079L6.35704 16.8705L5.81368 17.5286C6.66407 17.9774 7.4331 18.5717 8.0875 19.2855C7.54347 18.9448 6.89966 18.8102 6.26845 18.9052C4.86872 19.1406 2.32323 20.8674 1.08887 24.508C1.63232 24.0069 2.21066 23.5469 2.81933 23.1315C2.86925 22.7241 2.94621 22.3207 3.04967 21.924C3.04504 22.2668 3.06082 22.6095 3.09692 22.9504C3.67997 22.5475 4.29201 22.1902 4.92778 21.8817C4.97911 21.3088 5.08595 20.7425 5.24671 20.1912C5.21267 20.7018 5.21267 21.2141 5.24671 21.7247C5.7342 21.5072 6.23779 21.3296 6.75274 21.1934C6.75274 21.0063 6.80589 20.5112 6.87676 20.0765C6.87676 20.0765 6.87676 20.6319 6.95945 21.1391C7.15238 21.0948 7.34925 21.0586 7.55005 21.0304C6.84133 21.7428 6.1267 23.2824 6.19167 26.591C6.19167 26.591 6.61099 25.6069 7.14844 24.5805C7.04449 24.1681 6.98897 23.7445 6.98307 23.3186C6.98307 23.3186 7.13663 23.8198 7.3079 24.2726C7.46737 23.9707 7.63864 23.6688 7.80401 23.4092L7.84535 23.3428C7.78629 23.0168 7.67998 22.3647 7.65045 21.9119C7.65045 21.9119 7.82173 22.5156 8.02253 23.0651C8.42559 22.4297 8.89926 21.8442 9.43407 21.3202C12.7296 27.1042 12.387 35.5266 12.387 35.5266L13.9344 35.3877C13.5092 27.3578 10.9578 22.57 10.0069 21.0425C10.7743 20.9 11.5605 20.9 12.328 21.0425C12.328 20.5293 12.328 19.9738 12.328 19.9738C12.4284 20.4025 12.4992 20.8976 12.5229 21.0787C13.0467 21.1782 13.5621 21.3195 14.0643 21.5013C14.0753 20.9831 14.0516 20.4646 13.9935 19.9497C14.1908 20.4892 14.3353 21.0474 14.4246 21.616C15.0898 21.8701 15.7354 22.1748 16.3559 22.5277C16.3752 22.1859 16.3752 21.8432 16.3559 21.5013C16.4855 21.8961 16.5881 22.2996 16.663 22.7088C17.2833 23.0975 17.8754 23.5313 18.4348 24.0069Z" fill="black"/>
<path d="M9.44599 17.571C10.2965 12.1915 13.4267 9.16063 15.3166 8.47838C15.8594 8.30036 16.4324 8.23904 16.9996 8.29826C17.5667 8.35749 18.1157 8.53598 18.6121 8.82253C18.2164 8.52967 17.7998 8.26732 17.366 8.03764C17.7617 7.43389 18.2519 6.83013 18.2519 6.83013C17.7794 7.22257 17.2833 7.71161 17.1002 7.89274C16.4293 7.54442 15.7321 7.25166 15.0154 7.01729C15.438 6.43745 15.8977 5.88683 16.3915 5.36904C15.7172 5.79042 15.0861 6.2799 14.5075 6.83013C13.5506 6.5567 12.5755 6.35491 11.5899 6.22637C11.865 5.83203 12.1608 5.45313 12.4758 5.09131C12.0009 5.41889 11.5489 5.78001 11.1233 6.17203C10.0872 6.04025 9.04281 5.98778 7.99902 6.01506C12.6353 3.3223 16.9053 3.92002 18.6062 5.01886C19.3008 5.47057 19.8366 6.13672 20.1359 6.92069C20.4784 5.43545 21.1163 3.84757 22.2916 2.96005C24.9139 0.967649 28.4811 2.6944 28.4811 2.6944C27.1912 2.76303 25.9535 3.23749 24.9375 4.05285L23.6559 3.59399L24.6245 4.31246C23.6059 5.21886 22.7469 6.2971 22.0849 7.5003C22.7233 6.86047 23.5573 6.46405 24.4473 6.37731C26.4553 6.22637 30.5305 7.69954 33.4185 12.2639C32.5007 11.7529 31.5495 11.3071 30.5718 10.9296C30.3725 10.381 30.1337 9.8482 29.8572 9.33572C29.9761 9.8049 30.0688 10.2806 30.1348 10.7606C29.1992 10.4132 28.2398 10.1367 27.2644 9.9334C27.0065 9.16393 26.672 8.42348 26.2663 7.72369C26.4732 8.41598 26.633 9.12204 26.7447 9.8368C26.0033 9.70561 25.2528 9.63495 24.5004 9.62552C24.4177 9.37798 24.1992 8.70781 23.9571 8.14028C23.9571 8.14028 24.1165 8.91309 24.1992 9.62552C23.9216 9.62552 23.6086 9.62552 23.3665 9.67382C24.5477 10.4104 26.0655 12.27 27.0695 16.8344C27.0695 16.8344 26.1659 15.6269 25.091 14.4194C25.0997 13.8097 25.0342 13.2013 24.8961 12.6081C24.8961 12.6081 24.8548 13.3507 24.7721 14.0329C24.4532 13.6767 24.1224 13.3266 23.8035 13.0186L23.7267 12.9462C23.7267 12.4753 23.6263 11.5515 23.5141 10.9176C23.5141 10.9176 23.5141 11.8111 23.3842 12.6322C22.6327 11.9146 21.8023 11.2885 20.9096 10.7666C18.3168 19.823 21.5651 31.2944 21.5651 31.2944L19.3917 31.6445C17.3246 20.4931 19.2323 13.0126 20.0296 10.5795C18.9302 10.6428 17.8505 10.9044 16.8403 11.3523C16.6277 10.664 16.4683 9.8912 16.4683 9.8912C16.4735 10.4218 16.505 10.9517 16.5628 11.4791C15.8749 11.7939 15.2132 12.1654 14.5842 12.59C14.4059 11.8873 14.2737 11.1733 14.1885 10.4527C14.0994 11.2545 14.0875 12.0634 14.1531 12.8677C13.3419 13.4575 12.574 14.1073 11.8557 14.8118C11.7258 14.3451 11.6213 13.8714 11.5426 13.393C11.5029 13.9779 11.5029 14.565 11.5426 15.1499C10.7867 15.9033 10.0859 16.7125 9.44599 17.571Z" fill="black"/>
</g>
</svg>
